<?xml version="1.0" encoding="UTF-8"?>
<svg id="uuid-30433fdf-bafb-47bf-b93b-4bae2a0697c1" data-name="Layer 1" xmlns="http://www.w3.org/2000/svg" viewBox="0 0 200 200">
  <defs>
    <style>
      .uuid-c803139c-368b-4c59-ad11-8abbffb45ae0, .uuid-38d00f39-4c2e-45f9-9d52-4ff96baf990b {
        fill: #352224;
      }

      .uuid-38d00f39-4c2e-45f9-9d52-4ff96baf990b {
        stroke: #000;
        stroke-miterlimit: 10;
        stroke-width: 6px;
      }
    </style>
  </defs>
  <path class="uuid-c803139c-368b-4c59-ad11-8abbffb45ae0" d="m112.56,92.23c-2.86-20.56-20.29-35.89-41.12-35.89s-38.26,15.33-41.12,35.89c-14.95,3.53-25.11,18.18-22.43,34.18,2.33,13.9,14.41,24.35,28.5,24.71,3.59.09,7.1-.46,10.46-1.62,3.02,4.47,7.18,7.98,11.95,10.25l-2.61,21.26h-12.19v4h54v-4h-11.31l-2.61-21.26c4.77-2.26,8.93-5.78,11.95-10.25,3.12,1.08,6.37,1.63,9.7,1.63,16.37,0,29.69-13.39,29.69-29.85,0-13.91-9.53-25.89-22.86-29.04Zm-52.01,89.77l4.75-38.15c.08-.63-.15-1.27-.62-1.7l-18-16.74,5-4.94,11.93,10.77c.59.54,1.45.68,2.19.36.74-.32,1.21-1.04,1.21-1.84v-23.75h10v23.74c0,.81.49,1.54,1.25,1.85s1.63.14,2.21-.44l11.03-10.91,4.98,4.92-17.2,17.01c-.44.44-.65,1.05-.58,1.66l4.75,38.15s-22.9,0-22.9,0Zm63.07-39.4c-9.42,5.87-19.33,6.68-27.81,2.81-.33-.15-.71-.02-.88.29-2.52,4.59-6.23,8.17-10.64,10.5l-1.51-12.11,17.82-17.63c.38-.37.59-.88.59-1.41s-.21-1.04-.59-1.41l-8.75-8.65c-.27-.26-.69-.26-.96,0l-9.89,9.78v-22.1c0-.38-.31-.68-.68-.68h-16.64c-.38,0-.68.31-.68.68v22.39l-9.9-8.94c-.8-.72-2.02-.69-2.78.06l-7.8,7.71c-.39.38-.6.9-.59,1.44,0,.54.24,1.05.64,1.42l18.66,17.36-1.5,12.07c-4.09-2.16-7.58-5.4-10.07-9.52-.37-.62-1.04-.97-1.73-.97-.26,0-.51.05-.76.15-8.25,3.34-17.72,2.36-26.75-3.26-.79-.49-1.49-1.11-2.07-1.83-15.05-18.74-4.17-40.73,14.22-44.07.88-.16,1.55-.87,1.64-1.75,2.03-19.18,18.29-33.64,37.81-33.64s35.78,14.46,37.81,33.64c.09.88.76,1.59,1.64,1.75,18.39,3.34,29.27,25.33,14.22,44.07-.58.72-1.28,1.34-2.06,1.83Z"/>
  <line class="uuid-38d00f39-4c2e-45f9-9d52-4ff96baf990b" x1="19" y1="183" x2="181" y2="183"/>
  <line class="uuid-38d00f39-4c2e-45f9-9d52-4ff96baf990b" x1="112" y1="157" x2="112" y2="185"/>
  <line class="uuid-38d00f39-4c2e-45f9-9d52-4ff96baf990b" x1="127" y1="157" x2="127" y2="185"/>
  <line class="uuid-38d00f39-4c2e-45f9-9d52-4ff96baf990b" x1="142" y1="152" x2="142" y2="185"/>
  <line class="uuid-38d00f39-4c2e-45f9-9d52-4ff96baf990b" x1="157" y1="141" x2="157" y2="185"/>
  <line class="uuid-38d00f39-4c2e-45f9-9d52-4ff96baf990b" x1="172" y1="157" x2="172" y2="185"/>
</svg>