<?xml version="1.0" encoding="UTF-8"?>
<svg id="uuid-0b488400-437e-4055-98e9-c2841dbc78fe" data-name="Layer 1" xmlns="http://www.w3.org/2000/svg" viewBox="0 0 200 200">
  <defs>
    <style>
      .uuid-440f7baa-cf63-4c7f-bf1d-45e4a848f039 {
        fill: #352224;
      }
    </style>
  </defs>
  <path class="uuid-440f7baa-cf63-4c7f-bf1d-45e4a848f039" d="m92.89,103.24c11.07,0,20.13-9.06,20.13-20.13s-9.06-20.13-20.13-20.13-20.13,9.06-20.13,20.13,9.06,20.13,20.13,20.13Zm0-32c6.64,0,12.08,5.43,12.08,12.08s-5.43,12.08-12.08,12.08-12.08-5.43-12.08-12.08,5.43-12.08,12.08-12.08Z"/>
  <path class="uuid-440f7baa-cf63-4c7f-bf1d-45e4a848f039" d="m122.27,132.08c-3.02-13.69-15.3-23.55-29.38-23.55s-26.37,9.86-29.38,23.55l-2.82,12.48c-.81,3.42,0,6.84,2.21,9.66,2.21,2.62,5.43,4.23,8.86,4.23h41.86c3.42,0,6.64-1.61,8.86-4.23,2.21-2.62,3.02-6.24,2.21-9.66l-2.42-12.48Zm-5.84,18.85c-.4.4-1.21,1.21-2.62,1.21h-41.86c-1.41,0-2.21-.81-2.62-1.21s-1.01-1.41-.6-2.82l2.82-12.48c2.21-10.06,11.27-17.31,21.54-17.31s19.32,7.25,21.54,17.31l2.82,12.48c0,1.41-.6,2.42-1.01,2.82Z"/>
  <path class="uuid-440f7baa-cf63-4c7f-bf1d-45e4a848f039" d="m170.57,36.38c0-16.1-13.28-29.38-29.59-29.38h-.6c-6.24.2-12.08,2.01-17.11,5.84-6.44,4.83-10.47,11.67-11.47,19.32-11.04-2.49-22.08-3.1-35.35-.69-26.5,4.8-49.03,22.86-58.78,47.96-22.43,57.73,20.32,112.73,75.22,112.73,44.68,0,81.11-36.43,81.11-81.11,0-18.11-6.04-35.62-17.11-49.71,8.25-5.43,13.69-14.49,13.69-24.96Zm-42.27-15.69c3.62-2.62,7.85-4.23,12.48-4.23h.2c11.87,0,21.33,9.66,21.33,21.33s-9.46,21.33-21.33,21.33c-3.02,0-6.04-.6-8.86-1.81-.6-.2-1.01-.4-1.61-.4s-1.21.2-1.81.4l-2.62,1.41.6-1.21c.81-1.61.4-3.42-.81-4.63-4.03-4.03-6.24-9.46-6.24-15.09,0-6.84,3.02-13.08,8.65-17.11Zm37.64,90.4c0,40.25-32.81,73.06-73.06,73.06S19.83,151.34,19.83,111.09,52.63,37.83,92.89,37.83c6.44,0,12.88.81,18.92,2.62.81,5.43,2.82,10.47,6.44,14.69l-4.03,8.86c-.81,1.61-.4,3.42.81,4.63.81.81,1.81,1.21,2.82,1.21.6,0,1.21-.2,1.81-.4l11.07-5.23c3.22,1.21,6.84,1.81,10.47,1.81,2.82,0,5.64-.4,8.25-1.21,10.67,12.88,16.5,29.38,16.5,46.29Z"/>
  <path class="uuid-440f7baa-cf63-4c7f-bf1d-45e4a848f039" d="m134.35,35.81c1.01,0,2.01-.4,2.82-1.21s1.21-1.81,1.21-2.82-.4-2.01-1.21-2.82c-1.61-1.41-4.23-1.41-5.64,0-.81.81-1.21,1.81-1.21,2.82s.4,2.21,1.21,2.82c.6.81,1.81,1.21,2.82,1.21Z"/>
  <path class="uuid-440f7baa-cf63-4c7f-bf1d-45e4a848f039" d="m147.83,35.81c1.01,0,2.01-.4,2.82-1.21s1.21-1.81,1.21-2.82-.4-2.01-1.21-2.82c-1.41-1.41-4.23-1.41-5.64,0-.81.81-1.21,1.81-1.21,2.82s.4,2.21,1.21,2.82c.6.81,1.61,1.21,2.82,1.21Z"/>
  <path class="uuid-440f7baa-cf63-4c7f-bf1d-45e4a848f039" d="m131.33,49.7c3.62,1.81,7.04,2.82,10.26,2.82s6.44-1.01,10.26-2.82c2.01-1.01,2.82-3.42,1.81-5.43s-3.42-2.82-5.43-1.81c-5.23,2.62-7.85,2.62-13.08,0-2.01-1.01-4.43-.2-5.43,1.81-1.21,1.81-.4,4.43,1.61,5.43Z"/>
</svg>